Normalized EMG Linear Envelopes
nRows=279
nColumns=4

endheader
time	 med_gas_r	  soleus_r	 tib_ant_r	
3.39315	  0.008600	  0.004342	  0.001626	
3.42641	  0.008190	  0.005137	  0.001687	
3.45968	  0.007809	  0.005862	  0.001742	
3.49294	  0.007493	  0.006464	  0.001786	
3.52621	  0.007244	  0.006876	  0.001812	
3.55948	  0.007046	  0.007049	  0.001818	
3.59274	  0.006888	  0.006979	  0.001804	
3.62601	  0.006791	  0.006723	  0.001776	
3.65927	  0.006801	  0.006366	  0.001740	
3.69254	  0.006978	  0.005996	  0.001705	
3.72581	  0.007385	  0.005678	  0.001679	
3.75907	  0.008087	  0.005452	  0.001666	
3.79234	  0.009136	  0.005342	  0.001668	
3.8256	  0.010505	  0.005352	  0.001683	
3.85887	  0.012019	  0.005459	  0.001703	
3.89214	  0.013350	  0.005612	  0.001723	
3.9254	  0.014139	  0.005755	  0.001738	
3.95867	  0.014180	  0.005849	  0.001745	
3.99194	  0.013522	  0.005889	  0.001742	
4.0252	  0.012411	  0.005899	  0.001728	
4.05847	  0.011136	  0.005917	  0.001705	
4.09173	  0.009904	  0.005974	  0.001678	
4.125	  0.008819	  0.006080	  0.001655	
4.15827	  0.007924	  0.006220	  0.001641	
4.19153	  0.007235	  0.006351	  0.001638	
4.2248	  0.006757	  0.006418	  0.001646	
4.25806	  0.006473	  0.006385	  0.001664	
4.29133	  0.006351	  0.006250	  0.001693	
4.3246	  0.006343	  0.006051	  0.001731	
4.35786	  0.006406	  0.005835	  0.001769	
4.39113	  0.006506	  0.005639	  0.001800	
4.4244	  0.006627	  0.005481	  0.001813	
4.45766	  0.006773	  0.005363	  0.001806	
4.49093	  0.006955	  0.005288	  0.001781	
4.52419	  0.007184	  0.005263	  0.001746	
4.55746	  0.007463	  0.005293	  0.001708	
4.59073	  0.007780	  0.005379	  0.001672	
4.62399	  0.008100	  0.005501	  0.001641	
4.65726	  0.008378	  0.005627	  0.001617	
4.69052	  0.008583	  0.005715	  0.001607	
4.72379	  0.008714	  0.005735	  0.001610	
4.75706	  0.008794	  0.005677	  0.001624	
4.79032	  0.008842	  0.005549	  0.001640	
4.82359	  0.008852	  0.005379	  0.001650	
4.85685	  0.008796	  0.005202	  0.001649	
4.89012	  0.008659	  0.005052	  0.001641	
4.92339	  0.008463	  0.004953	  0.001631	
4.95665	  0.008264	  0.004911	  0.001626	
4.98992	  0.008112	  0.004926	  0.001628	
5.02319	  0.008020	  0.005000	  0.001640	
5.05645	  0.007966	  0.005138	  0.001659	
5.08972	  0.007917	  0.005340	  0.001686	
5.12298	  0.007858	  0.005595	  0.001720	
5.15625	  0.007797	  0.005879	  0.001760	
5.18952	  0.007749	  0.006155	  0.001809	
5.22278	  0.007717	  0.006384	  0.001866	
5.25605	  0.007689	  0.006524	  0.001929	
5.28931	  0.007639	  0.006542	  0.001995	
5.32258	  0.007552	  0.006434	  0.002058	
5.35585	  0.007430	  0.006233	  0.002109	
5.38911	  0.007285	  0.006001	  0.002136	
5.42238	  0.007136	  0.005803	  0.002120	
5.45565	  0.007001	  0.005685	  0.002037	
5.48891	  0.006898	  0.005657	  0.001854	
5.52218	  0.006838	  0.005698	  0.001537	
5.55544	  0.006815	  0.005762	  0.001054	
5.58871	  0.006803	  0.005793	  0.000392	
5.62198	  0.006771	  0.005736	 -0.000440	
5.65524	  0.006700	  0.005554	 -0.001388	
5.68851	  0.006601	  0.005253	 -0.002325	
5.72177	  0.006517	  0.004893	 -0.003015	
5.75504	  0.006515	  0.004587	 -0.003080	
5.78831	  0.006676	  0.004493	 -0.001992	
5.82157	  0.007074	  0.004792	  0.000902	
5.85484	  0.007762	  0.005679	  0.006356	
5.8881	  0.008748	  0.007350	  0.015150	
5.92137	  0.009998	  0.009971	  0.027918	
5.95464	  0.011445	  0.013632	  0.044835	
5.9879	  0.013012	  0.018255	  0.065283	
6.02117	  0.014621	  0.023535	  0.087769	
6.05444	  0.016199	  0.028969	  0.110321	
6.0877	  0.017671	  0.034010	  0.131196	
6.12097	  0.018958	  0.038265	  0.149442	
6.15423	  0.019996	  0.041632	  0.164925	
6.1875	  0.020757	  0.044297	  0.177934	
6.22077	  0.021254	  0.046593	  0.188789	
6.25403	  0.021542	  0.048806	  0.197748	
6.2873	  0.021691	  0.051059	  0.205081	
6.32056	  0.021761	  0.053330	  0.211065	
6.35383	  0.021786	  0.055586	  0.215898	
6.3871	  0.021771	  0.057861	  0.219695	
6.42036	  0.021711	  0.060172	  0.222551	
6.45363	  0.021609	  0.062319	  0.224503	
6.4869	  0.021484	  0.063811	  0.225377	
6.52016	  0.021362	  0.064082	  0.224797	
6.55343	  0.021268	  0.062852	  0.222515	
6.58669	  0.021213	  0.060349	  0.218806	
6.61996	  0.021188	  0.057170	  0.214483	
6.65323	  0.021159	  0.053925	  0.210441	
6.68649	  0.021067	  0.050959	  0.207132	
6.71976	  0.020859	  0.048333	  0.204422	
6.75302	  0.020508	  0.046007	  0.201852	
6.78629	  0.020045	  0.044023	  0.199002	
6.81956	  0.019546	  0.042531	  0.195647	
6.85282	  0.019108	  0.041680	  0.191723	
6.88609	  0.018814	  0.041481	  0.187273	
6.91935	  0.018703	  0.041757	  0.182447	
6.95262	  0.018760	  0.042201	  0.177500	
6.98589	  0.018911	  0.042485	  0.172773	
7.01915	  0.019058	  0.042392	  0.168689	
7.05242	  0.019124	  0.041903	  0.165775	
7.08569	  0.019097	  0.041210	  0.164604	
7.11895	  0.019032	  0.040633	  0.165510	
7.15222	  0.019003	  0.040452	  0.168208	
7.18548	  0.019033	  0.040753	  0.171706	
7.21875	  0.019069	  0.041391	  0.174742	
7.25202	  0.019031	  0.042100	  0.176434	
7.28528	  0.018867	  0.042638	  0.176560	
7.31855	  0.018588	  0.042880	  0.175273	
7.35181	  0.018245	  0.042816	  0.172698	
7.38508	  0.017886	  0.042501	  0.168902	
7.41835	  0.017547	  0.042014	  0.164208	
7.45161	  0.017262	  0.041425	  0.159347	
7.48488	  0.017078	  0.040789	  0.155193	
7.51815	  0.017047	  0.040169	  0.152293	
7.55141	  0.017200	  0.039648	  0.150675	
7.58468	  0.017512	  0.039326	  0.150023	
7.61794	  0.017899	  0.039255	  0.149965	
7.65121	  0.018237	  0.039367	  0.150203	
7.68448	  0.018404	  0.039478	  0.150477	
7.71774	  0.018312	  0.039371	  0.150538	
7.75101	  0.017939	  0.038919	  0.150200	
7.78427	  0.017338	  0.038157	  0.149432	
7.81754	  0.016623	  0.037264	  0.148376	
7.85081	  0.015946	  0.036499	  0.147259	
7.88407	  0.015450	  0.036110	  0.146244	
7.91734	  0.015224	  0.036256	  0.145348	
7.9506	  0.015289	  0.036921	  0.144471	
7.98387	  0.015595	  0.037892	  0.143496	
8.01714	  0.016062	  0.038848	  0.142393	
8.0504	  0.016602	  0.039536	  0.141270	
8.08367	  0.017144	  0.039895	  0.140348	
8.11694	  0.017613	  0.040014	  0.139846	
8.1502	  0.017932	  0.039976	  0.139835	
8.18347	  0.018041	  0.039769	  0.140196	
8.21673	  0.017944	  0.039337	  0.140695	
8.25	  0.017728	  0.038694	  0.141133	
8.28327	  0.017519	  0.037963	  0.141493	
8.31653	  0.017413	  0.037297	  0.142044	
8.3498	  0.017423	  0.036799	  0.143312	
8.38306	  0.017494	  0.036507	  0.145859	
8.41633	  0.017543	  0.036425	  0.149956	
8.4496	  0.017516	  0.036547	  0.155371	
8.48286	  0.017403	  0.036854	  0.161426	
8.51613	  0.017235	  0.037333	  0.167316	
8.5494	  0.017065	  0.038009	  0.172452	
8.58266	  0.016942	  0.038943	  0.176624	
8.61593	  0.016888	  0.040158	  0.179911	
8.64919	  0.016889	  0.041558	  0.182501	
8.68246	  0.016907	  0.042953	  0.184569	
8.71573	  0.016900	  0.044169	  0.186251	
8.74899	  0.016848	  0.045147	  0.187605	
8.78226	  0.016763	  0.045928	  0.188542	
8.81552	  0.016679	  0.046534	  0.188832	
8.84879	  0.016643	  0.046898	  0.188272	
8.88206	  0.016693	  0.046916	  0.186938	
8.91532	  0.016842	  0.046559	  0.185320	
8.94859	  0.017054	  0.045925	  0.184231	
8.98185	  0.017271	  0.045201	  0.184528	
9.01512	  0.017438	  0.044559	  0.186760	
9.04839	  0.017541	  0.044085	  0.190859	
9.08165	  0.017598	  0.043786	  0.196020	
9.11492	  0.017635	  0.043628	  0.200958	
9.14819	  0.017665	  0.043561	  0.204475	
9.18145	  0.017688	  0.043519	  0.205990	
9.21472	  0.017694	  0.043412	  0.205626	
9.24798	  0.017672	  0.043134	  0.203870	
9.28125	  0.017622	  0.042613	  0.201185	
9.31452	  0.017559	  0.041869	  0.197902	
9.34778	  0.017523	  0.041036	  0.194317	
9.38105	  0.017556	  0.040316	  0.190719	
9.41431	  0.017659	  0.039866	  0.187312	
9.44758	  0.017776	  0.039692	  0.184203	
9.48085	  0.017808	  0.039642	  0.181508	
9.51411	  0.017674	  0.039520	  0.179415	
9.54738	  0.017358	  0.039237	  0.178063	
9.58065	  0.016916	  0.038884	  0.177395	
9.61391	  0.016439	  0.038675	  0.177215	
9.64718	  0.016021	  0.038817	  0.177450	
9.68044	  0.015737	  0.039407	  0.178349	
9.71371	  0.015641	  0.040418	  0.180354	
9.74698	  0.015758	  0.041697	  0.183708	
9.78024	  0.016069	  0.042987	  0.188095	
9.81351	  0.016505	  0.043969	  0.192641	
9.84677	  0.016960	  0.044369	  0.196258	
9.88004	  0.017336	  0.044074	  0.198088	
9.91331	  0.017576	  0.043170	  0.197740	
9.94657	  0.017666	  0.041866	  0.195282	
9.97984	  0.017627	  0.040377	  0.191138	
10.0131	  0.017505	  0.038864	  0.185967	
10.0464	  0.017348	  0.037465	  0.180469	
10.0796	  0.017187	  0.036331	  0.175153	
10.1129	  0.017014	  0.035627	  0.170275	
10.1462	  0.016795	  0.035457	  0.166055	
10.1794	  0.016503	  0.035803	  0.162918	
10.2127	  0.016159	  0.036488	  0.161392	
10.246	  0.015815	  0.037226	  0.161699	
10.2792	  0.015517	  0.037744	  0.163517	
10.3125	  0.015286	  0.037917	  0.166223	
10.3458	  0.015128	  0.037822	  0.169371	
10.379	  0.015060	  0.037666	  0.172893	
10.4123	  0.015117	  0.037644	  0.176864	
10.4456	  0.015327	  0.037850	  0.181181	
10.4788	  0.015685	  0.038279	  0.185548	
10.5121	  0.016147	  0.038889	  0.189698	
10.5454	  0.016638	  0.039648	  0.193534	
10.5786	  0.017089	  0.040525	  0.197027	
10.6119	  0.017462	  0.041447	  0.199982	
10.6452	  0.017746	  0.042276	  0.201895	
10.6784	  0.017946	  0.042836	  0.202029	
10.7117	  0.018053	  0.043000	  0.199638	
10.745	  0.018044	  0.042767	  0.194162	
10.7782	  0.017902	  0.042259	  0.185223	
10.8115	  0.017637	  0.041633	  0.172489	
10.8448	  0.017288	  0.040991	  0.155646	
10.878	  0.016900	  0.040409	  0.134716	
10.9113	  0.016492	  0.040053	  0.110567	
10.9446	  0.016046	  0.040246	  0.085108	
10.9778	  0.015522	  0.041299	  0.060839	
11.0111	  0.014890	  0.043160	  0.039967	
11.0444	  0.014155	  0.045144	  0.023702	
11.0776	  0.013360	  0.046073	  0.012146	
11.1109	  0.012568	  0.044833	  0.004670	
11.1442	  0.011825	  0.040997	  0.000381	
11.1774	  0.011150	  0.035055	 -0.001594	
11.2107	  0.010537	  0.028112	 -0.002022	
11.244	  0.009969	  0.021344	 -0.001551	
11.2772	  0.009444	  0.015578	 -0.000687	
11.3105	  0.008974	  0.011196	  0.000232	
11.3437	  0.008583	  0.008257	  0.001026	
11.377	  0.008294	  0.006653	  0.001632	
11.4103	  0.008116	  0.006218	  0.002050	
11.4435	  0.008039	  0.006767	  0.002307	
11.4768	  0.008032	  0.008086	  0.002440	
11.5101	  0.008050	  0.009876	  0.002481	
11.5433	  0.008039	  0.011708	  0.002460	
11.5766	  0.007963	  0.013078	  0.002399	
11.6099	  0.007822	  0.013586	  0.002315	
11.6431	  0.007654	  0.013126	  0.002219	
11.6764	  0.007514	  0.011928	  0.002120	
11.7097	  0.007440	  0.010405	  0.002022	
11.7429	  0.007424	  0.008934	  0.001931	
11.7762	  0.007423	  0.007716	  0.001853	
11.8095	  0.007391	  0.006790	  0.001789	
11.8427	  0.007316	  0.006119	  0.001741	
11.876	  0.007226	  0.005657	  0.001707	
11.9093	  0.007164	  0.005372	  0.001687	
11.9425	  0.007157	  0.005231	  0.001680	
11.9758	  0.007199	  0.005192	  0.001685	
12.0091	  0.007259	  0.005211	  0.001698	
12.0423	  0.007299	  0.005248	  0.001715	
12.0756	  0.007297	  0.005274	  0.001726	
12.1089	  0.007248	  0.005266	  0.001727	
12.1421	  0.007157	  0.005205	  0.001714	
12.1754	  0.007037	  0.005075	  0.001688	
12.2087	  0.006900	  0.004872	  0.001656	
12.2419	  0.006766	  0.004615	  0.001623	
12.2752	  0.006660	  0.004356	  0.001598	
12.3085	  0.006602	  0.004181	  0.001585	
12.3417	  0.006593	  0.004195	  0.001582	
12.375	  0.006610	  0.004520	  0.001588	
12.4083	  0.006617	  0.005304	  0.001598	
12.4415	  0.006584	  0.006728	  0.001611	
12.4748	  0.006500	  0.008984	  0.001627	
12.5081	  0.006371	  0.012174	  0.001652	
12.5413	  0.006212	  0.016195	  0.001688	
12.5746	  0.006041	  0.020721	  0.001736	
12.6079	  0.005872	  0.025343	  0.001793	
12.6411	  0.005715	  0.029763	  0.001854	
